<mxfile host="app.diagrams.net" agent="Mozilla/5.0 (Macintosh; Intel Mac OS X 10_15_7) AppleWebKit/537.36 (KHTML, like Gecko) Chrome/137.0.0.0 Safari/537.36" version="27.1.5">
  <diagram name="Page-1" id="hmE1q83r0tVEfqJWFLiJ">
    <mxGraphModel dx="1028" dy="687" grid="0" gridSize="10" guides="1" tooltips="1" connect="1" arrows="1" fold="1" page="1" pageScale="1" pageWidth="850" pageHeight="1100" math="0" shadow="0">
      <root>
        <mxCell id="0" />
        <mxCell id="1" parent="0" />
        <mxCell id="v-QcKY1cuWS6jphPdd-s-101" value="" style="endArrow=classic;html=1;rounded=0;strokeWidth=2;startArrow=none;startFill=0;endFill=1;" edge="1" parent="1">
          <mxGeometry width="50" height="50" relative="1" as="geometry">
            <mxPoint x="117" y="498" as="sourcePoint" />
            <mxPoint x="115" y="85" as="targetPoint" />
          </mxGeometry>
        </mxCell>
        <mxCell id="v-QcKY1cuWS6jphPdd-s-102" value="" style="endArrow=classic;html=1;rounded=0;strokeWidth=2;endFill=1;" edge="1" parent="1">
          <mxGeometry width="50" height="50" relative="1" as="geometry">
            <mxPoint x="116" y="498" as="sourcePoint" />
            <mxPoint x="941" y="498" as="targetPoint" />
          </mxGeometry>
        </mxCell>
        <mxCell id="v-QcKY1cuWS6jphPdd-s-131" style="edgeStyle=orthogonalEdgeStyle;rounded=0;orthogonalLoop=1;jettySize=auto;html=1;exitX=0.5;exitY=1;exitDx=0;exitDy=0;endArrow=none;startFill=0;strokeWidth=2;dashed=1;" edge="1" parent="1" source="v-QcKY1cuWS6jphPdd-s-112">
          <mxGeometry relative="1" as="geometry">
            <mxPoint x="861.1666666666667" y="501.3333333333335" as="targetPoint" />
          </mxGeometry>
        </mxCell>
        <mxCell id="v-QcKY1cuWS6jphPdd-s-112" value="大型推理语言模型" style="fillColor=#fff2cc;strokecolor=none;rounded=1;strokeColor=#d6b656;fontStyle=1;fontSize=14;whiteSpace=wrap;html=1;dashed=1;dashPattern=12 12;" vertex="1" parent="1">
          <mxGeometry x="781" y="314.25" width="160" height="30" as="geometry" />
        </mxCell>
        <mxCell id="v-QcKY1cuWS6jphPdd-s-134" style="edgeStyle=orthogonalEdgeStyle;rounded=0;orthogonalLoop=1;jettySize=auto;html=1;exitX=0.5;exitY=1;exitDx=0;exitDy=0;endArrow=none;startFill=0;strokeWidth=2;dashed=1;" edge="1" parent="1" source="v-QcKY1cuWS6jphPdd-s-114">
          <mxGeometry relative="1" as="geometry">
            <mxPoint x="382.8333333333335" y="500.5" as="targetPoint" />
          </mxGeometry>
        </mxCell>
        <mxCell id="v-QcKY1cuWS6jphPdd-s-114" value="神经语言模型" style="fillColor=#AE4132;strokecolor=none;rounded=1;fontColor=#FFFFFF;strokeColor=none;fontStyle=1;fontSize=14;whiteSpace=wrap;html=1;" vertex="1" parent="1">
          <mxGeometry x="303" y="400" width="160" height="30" as="geometry" />
        </mxCell>
        <mxCell id="v-QcKY1cuWS6jphPdd-s-135" style="edgeStyle=orthogonalEdgeStyle;rounded=0;orthogonalLoop=1;jettySize=auto;html=1;exitX=0.5;exitY=1;exitDx=0;exitDy=0;entryX=0.5;entryY=0;entryDx=0;entryDy=0;dashed=1;strokeWidth=2;endArrow=none;startFill=0;" edge="1" parent="1" source="v-QcKY1cuWS6jphPdd-s-115" target="v-QcKY1cuWS6jphPdd-s-124">
          <mxGeometry relative="1" as="geometry" />
        </mxCell>
        <mxCell id="v-QcKY1cuWS6jphPdd-s-115" value="统计语言模型" style="fillColor=#23445D;strokecolor=none;rounded=1;fontColor=#FFFFFF;strokeColor=none;fontStyle=1;fontSize=14;whiteSpace=wrap;html=1;" vertex="1" parent="1">
          <mxGeometry x="147" y="428" width="160" height="30" as="geometry" />
        </mxCell>
        <mxCell id="v-QcKY1cuWS6jphPdd-s-133" style="edgeStyle=orthogonalEdgeStyle;rounded=0;orthogonalLoop=1;jettySize=auto;html=1;exitX=0.5;exitY=1;exitDx=0;exitDy=0;strokeWidth=2;endArrow=none;startFill=0;dashed=1;" edge="1" parent="1" source="v-QcKY1cuWS6jphPdd-s-117">
          <mxGeometry relative="1" as="geometry">
            <mxPoint x="542.8333333333335" y="499.66666666666674" as="targetPoint" />
          </mxGeometry>
        </mxCell>
        <mxCell id="v-QcKY1cuWS6jphPdd-s-117" value="预训练语言模型" style="fillColor=#56517E;strokecolor=none;rounded=1;fontColor=#FFFFFF;strokeColor=none;fontStyle=1;fontSize=14;whiteSpace=wrap;html=1;" vertex="1" parent="1">
          <mxGeometry x="463" y="370" width="160" height="30" as="geometry" />
        </mxCell>
        <mxCell id="v-QcKY1cuWS6jphPdd-s-119" value="&lt;font&gt;&lt;font color=&quot;#f2931e&quot;&gt;&lt;b&gt;通用任务求解器&lt;/b&gt;&lt;/font&gt;&lt;br&gt;&lt;br&gt;GPT-3、ChatGPT&lt;/font&gt;&lt;div&gt;&lt;font&gt;规模化语言模型&lt;/font&gt;&lt;/div&gt;" style="rounded=1;strokeColor=none;fillColor=#EEEEEE;align=center;arcSize=12;verticalAlign=top;whiteSpace=wrap;html=1;fontSize=12;" vertex="1" parent="1">
          <mxGeometry x="642" y="252" width="118" height="71" as="geometry" />
        </mxCell>
        <mxCell id="v-QcKY1cuWS6jphPdd-s-120" value="&lt;font&gt;&lt;font color=&quot;#ae4132&quot;&gt;&lt;b&gt;任务无关特征学习器&lt;/b&gt;&lt;/font&gt;&lt;br&gt;&lt;br&gt;Word2vec&lt;/font&gt;&lt;div&gt;&lt;font&gt;静态词表示&lt;/font&gt;&lt;/div&gt;&lt;div&gt;&lt;font&gt;神经上下文建模&lt;/font&gt;&lt;/div&gt;" style="rounded=1;strokeColor=none;fillColor=#EEEEEE;align=center;arcSize=12;verticalAlign=top;whiteSpace=wrap;html=1;fontSize=12;" vertex="1" parent="1">
          <mxGeometry x="319" y="284" width="128" height="86" as="geometry" />
        </mxCell>
        <mxCell id="v-QcKY1cuWS6jphPdd-s-121" value="&lt;font&gt;&lt;font color=&quot;#23445d&quot;&gt;&lt;b style=&quot;&quot;&gt;特定任务辅助工具&lt;/b&gt;&lt;/font&gt;&lt;br&gt;&lt;br&gt;N-Gram模型&lt;/font&gt;&lt;div&gt;&lt;font&gt;统计方法&lt;/font&gt;&lt;/div&gt;&lt;div&gt;&lt;font&gt;概率统计&lt;/font&gt;&lt;/div&gt;" style="rounded=1;strokeColor=none;fillColor=#EEEEEE;align=center;arcSize=12;verticalAlign=top;whiteSpace=wrap;html=1;fontSize=12;" vertex="1" parent="1">
          <mxGeometry x="166.5" y="311" width="121" height="89" as="geometry" />
        </mxCell>
        <mxCell id="v-QcKY1cuWS6jphPdd-s-123" value="&lt;font&gt;&lt;font color=&quot;#56517e&quot;&gt;&lt;b&gt;可迁移NLP任务求解器&lt;/b&gt;&lt;/font&gt;&lt;br&gt;&lt;br&gt;ELMo、BERT&lt;/font&gt;&lt;div&gt;&lt;font&gt;预训练+微调&lt;/font&gt;&lt;/div&gt;" style="rounded=1;strokeColor=none;fillColor=#EEEEEE;align=center;arcSize=12;verticalAlign=top;whiteSpace=wrap;html=1;fontSize=12;" vertex="1" parent="1">
          <mxGeometry x="477.5" y="273" width="131" height="70" as="geometry" />
        </mxCell>
        <mxCell id="v-QcKY1cuWS6jphPdd-s-124" value="&lt;font style=&quot;font-size: 16px;&quot;&gt;1990s&lt;/font&gt;" style="text;html=1;align=center;verticalAlign=middle;whiteSpace=wrap;rounded=0;" vertex="1" parent="1">
          <mxGeometry x="197" y="499" width="60" height="30" as="geometry" />
        </mxCell>
        <mxCell id="v-QcKY1cuWS6jphPdd-s-125" value="&lt;font style=&quot;font-size: 16px;&quot;&gt;2013&lt;/font&gt;" style="text;html=1;align=center;verticalAlign=middle;whiteSpace=wrap;rounded=0;" vertex="1" parent="1">
          <mxGeometry x="353" y="499" width="60" height="30" as="geometry" />
        </mxCell>
        <mxCell id="v-QcKY1cuWS6jphPdd-s-126" value="&lt;font style=&quot;font-size: 16px;&quot;&gt;2018&lt;/font&gt;" style="text;html=1;align=center;verticalAlign=middle;whiteSpace=wrap;rounded=0;" vertex="1" parent="1">
          <mxGeometry x="513" y="499" width="60" height="30" as="geometry" />
        </mxCell>
        <mxCell id="v-QcKY1cuWS6jphPdd-s-127" value="&lt;font style=&quot;font-size: 16px;&quot;&gt;2020&lt;/font&gt;" style="text;html=1;align=center;verticalAlign=middle;whiteSpace=wrap;rounded=0;" vertex="1" parent="1">
          <mxGeometry x="671" y="499" width="60" height="30" as="geometry" />
        </mxCell>
        <mxCell id="v-QcKY1cuWS6jphPdd-s-128" value="&lt;font style=&quot;font-size: 16px;&quot;&gt;2024&lt;/font&gt;" style="text;html=1;align=center;verticalAlign=middle;whiteSpace=wrap;rounded=0;" vertex="1" parent="1">
          <mxGeometry x="831" y="499" width="60" height="30" as="geometry" />
        </mxCell>
        <mxCell id="v-QcKY1cuWS6jphPdd-s-132" style="edgeStyle=orthogonalEdgeStyle;rounded=0;orthogonalLoop=1;jettySize=auto;html=1;exitX=0.5;exitY=1;exitDx=0;exitDy=0;strokeWidth=2;endArrow=none;startFill=0;dashed=1;" edge="1" parent="1" source="v-QcKY1cuWS6jphPdd-s-129">
          <mxGeometry relative="1" as="geometry">
            <mxPoint x="701.1666666666667" y="497.16666666666674" as="targetPoint" />
          </mxGeometry>
        </mxCell>
        <mxCell id="v-QcKY1cuWS6jphPdd-s-129" value="大语言模型" style="fillColor=#fff2cc;strokecolor=none;rounded=1;strokeColor=#d6b656;fontStyle=1;fontSize=14;whiteSpace=wrap;html=1;" vertex="1" parent="1">
          <mxGeometry x="621" y="343" width="160" height="30" as="geometry" />
        </mxCell>
        <mxCell id="v-QcKY1cuWS6jphPdd-s-136" value="&lt;font&gt;&lt;font color=&quot;#f2931e&quot;&gt;&lt;b&gt;深度推理求解器&lt;/b&gt;&lt;/font&gt;&lt;br&gt;&lt;br&gt;o1、DeepSeek R1&lt;br&gt;&lt;/font&gt;&lt;div&gt;链式思维推理&lt;/div&gt;&lt;div&gt;强化学习优化&lt;/div&gt;" style="rounded=1;strokeColor=none;fillColor=#EEEEEE;align=center;arcSize=12;verticalAlign=top;whiteSpace=wrap;html=1;fontSize=12;" vertex="1" parent="1">
          <mxGeometry x="797" y="216" width="128" height="84" as="geometry" />
        </mxCell>
        <mxCell id="v-QcKY1cuWS6jphPdd-s-137" value="&lt;font style=&quot;font-size: 16px;&quot;&gt;任务求解能力&lt;/font&gt;" style="text;html=1;align=center;verticalAlign=middle;whiteSpace=wrap;rounded=0;rotation=-90;" vertex="1" parent="1">
          <mxGeometry x="29" y="260.75" width="121" height="53.5" as="geometry" />
        </mxCell>
      </root>
    </mxGraphModel>
  </diagram>
</mxfile>
